<?xml version="1.0" ?>

<!DOCTYPE svg  PUBLIC '-//W3C//DTD SVG 1.1//EN'  'http://www.w3.org/Graphics/SVG/1.1/DTD/svg11.dtd'>

<!-- Uploaded to: SVG Repo, www.svgrepo.com, Generator: SVG Repo Mixer Tools -->
<svg width="40px" viewBox="0 0 32 32" enable-background="new 0 0 32 32" id="_x3C_Layer_x3E_" version="1.1" xml:space="preserve" xmlns="http://www.w3.org/2000/svg" xmlns:xlink="http://www.w3.org/1999/xlink">

<g id="Airplane_x2C__plane_x2C__flight_1_">

<g id="XMLID_94_">

<path d="    M17.542,8.382L2.958,4.902l-1.25,1.26c-0.18,0.17-0.14,0.45,0.07,0.58l11.083,6.465" fill="none" id="XMLID_95_" stroke="#26aded" stroke-linecap="round" stroke-linejoin="round" stroke-miterlimit="10"/>

<path d="    M17.884,17.581l7.374,12.642c0.13,0.209,0.41,0.25,0.58,0.07l1.26-1.25l-3.903-16.359" fill="none" id="XMLID_96_" stroke="#26aded" stroke-linecap="round" stroke-linejoin="round" stroke-miterlimit="10"/>

<path d="    M9.134,19.857l-6.336-0.715l-1.19,1.189c-0.18,0.18-0.13,0.48,0.09,0.6l3.787,1.975" fill="none" id="XMLID_97_" stroke="#26aded" stroke-linecap="round" stroke-linejoin="round" stroke-miterlimit="10"/>

<path d="    M8.109,24.625l2.958,5.677c0.12,0.221,0.42,0.271,0.6,0.091l1.19-1.19l-0.715-6.333" fill="none" id="XMLID_98_" stroke="#26aded" stroke-linecap="round" stroke-linejoin="round" stroke-miterlimit="10"/>

<path d="    M7.328,24.673l0.4-0.011c0.12-0.01,2.81-0.14,4.88-2.22c0.63-0.58,14.51-13.32,15.99-14.811c2.2-2.2,2.15-5.149,1.54-5.77    c-0.61-0.61-3.58-0.66-5.77,1.54c-1.5,1.5-14.23,15.359-14.82,16c-0.644,0.649-1.104,1.354-1.43,2.024" fill="none" id="XMLID_99_" stroke="#26aded" stroke-linecap="round" stroke-linejoin="round" stroke-miterlimit="10"/>

<line fill="none" id="XMLID_1645_" stroke="#26aded" stroke-linecap="round" stroke-linejoin="round" stroke-miterlimit="10" x1="10.5" x2="4" y1="21.5" y2="28"/>

<path d="    M27.498,3.502c0.552,0,1,0.448,1,1" fill="none" id="XMLID_100_" stroke="#26aded" stroke-linecap="round" stroke-linejoin="round" stroke-miterlimit="10"/>

</g>

</g>

</svg>